<svg xmlns="http://www.w3.org/2000/svg"
  viewBox="0 0 36 36" fill="black">
<path d="M18 14C15.79 14 14 15.79 14 18C14 20.21 15.79 22 18 22C20.21 22 22 20.21 22 18C22 15.79 20.21 14 18 14ZM32 0H4C1.79 0 0 1.79 0 4V32C0 34.21 1.79 36 4 36H32C34.21 36 36 34.21 36 32V4C36 1.79 34.21 0 32 0ZM28.5 18C28.5 18.46 28.46 18.92 28.4 19.37L31.36 21.69C31.62 21.9 31.7 22.28 31.52 22.58L28.72 27.43C28.55 27.73 28.18 27.85 27.86 27.73L24.37 26.32C23.65 26.88 22.86 27.34 22 27.7L21.48 31.41C21.44 31.74 21.15 32 20.8 32H15.2C14.85 32 14.56 31.74 14.51 31.41L13.99 27.7C13.14 27.35 12.35 26.88 11.62 26.32L8.14 27.72C7.82 27.84 7.46 27.72 7.28 27.42L4.48 22.57C4.3 22.27 4.38 21.89 4.64 21.68L7.6 19.37C7.54 18.92 7.5 18.47 7.5 18C7.5 17.54 7.54 17.08 7.6 16.63L4.64 14.32C4.38 14.11 4.3 13.73 4.48 13.43L7.28 8.58C7.46 8.28 7.82 8.16 8.14 8.28L11.62 9.68C12.34 9.13 13.13 8.66 13.99 8.3L14.51 4.59C14.56 4.26 14.85 4 15.2 4H20.8C21.15 4 21.44 4.26 21.49 4.59L22.01 8.3C22.86 8.65 23.65 9.12 24.38 9.68L27.86 8.28C28.18 8.16 28.54 8.28 28.72 8.58L31.52 13.43C31.7 13.73 31.62 14.11 31.36 14.32L28.4 16.64C28.46 17.08 28.5 17.54 28.5 18Z"
  stroke="none"
/>
</svg>
